@startuml


abstract class Personas {
	#class_db db
	#int person
	#String apellido
	#String nombre
	#Array<Documentos> documento
	#Array<Emails> email
	#Array<Telefonos> telefono
	#Array<Direcciones> direccion
	#File foto_persona
	#Calendar fechaNacimiento
	#String estadoCivil
	#String nacionalidad
	#String tipoNacionalidad
	#String sexo
	#String esposa
	#String familiarACargo
	#String FamiliaNumerosa
	#String hijos
	#String guarderia
	#String hijoIncapasitado
	#String prenatal
	#String preescolar
	#String escuelaMedia
	#String escuelaPrimaria
	#Credenciales credencial
		
	+String getNombreYApellido()
        +String get_Photo()
        +boolean nuevoPerdoc()
        +void nuevoCatXPerson()
        +void updateCatXPerson()
        +void inserPerson()
        +int nuevaPersona()
        +void buscar_PersonXPerson()
        +void comprobarExisteDato()
        -String recuNacion()
        +String buscar_emails_institucional()
        +String buscar_emails_personal()
        +String buscar_emails_personal()
        +void nuevo_documneto()
        +void agregar_documento()
        +void setDocumentos()
        +Documentos getDoc()
        +void updateCatXPerson()

}

abstract class Documentos {
    #String docNumero
    #String docTipo
    +String getDocNumero()
    +String getDocTipo()
}

class Dnis {
    -String docTipo
    -int numero
    +void setDocNumero(int)
}

class Pasaportes {
    -String numero
    +void setDocNumero(int)
}

class Cuils {
    -String docTipo
    -int numero
    +boolean verificar()
    +void setDocNumero(int)
}

class Emails [[java:personas.Emails]] {
	-String tipo
	-String email
}
class Cuentas [[java:personas.Cuentas]] {
	-int idCuenta
	-String cuenta
	-String emailCuenta
	-String[] tipoCuenta
	-String fraseDeSeguridad
	-Calendar vencimiento
	-Calendar alta
	-Calendar baja
}
class Academicos [[java:personas.Academicos]] {
}
class Telefonos [[java:personas.Telefonos]] {
	-String tipo
	-int numero
	-int codArea
	-int codPais
}
class Externo [[java:personas.Externo]] {
}
abstract class Empleados{
	#int legajo
	#Calendar fechaIngreso
	#Calendar fechaBaja
	#Calendar fechaReingreso
	#Calendar inicioCargo
	#String actividad
	#int antiguedad
	#String cajaDeAhorro
	#String cajaJubilacion
	#String cargo
	#int codigoAlta
	#String titulo
	#int codigoTitulo
	#int nroJubilacion
	#int nroSindicato
	#String obraSocial
	#int redito
	#String seguro
	#int sucursalCtaBanco
	#int tipoCtaBanco
	#String unidadContrato
	#String tipoBco
	
}
class Docentes {
    
}

class Alumnos {
    #int idcentrocosto;
    #string carrera_descrip;
    #int carrera;
    #int carrera_stat;
    #int fa;
    #int es;
    #int ca;
    #int plan;
    #string desc_unidad_alumno;
    +void findByPerson(int, int)
    +array findByProps(string, array)
    +boolean obtenerSeterarFaesca(int)
    +boolean obtener_unidad_por_fa(int)
    +array MateriasAprxPlanCarrera(int, int, $estados, int)
    +void loadData(array)
    +int getIdcentrocosto()
    +string getCarrera_descrip()
    +int getCarrera()
    +int getCarrera_stat()
    +int getFa()
    +int getEs()
    +int getCa()
    +int getPlan()
    +string getDesc_unidad_alumno()
    +string get_descripcion_estado_carrera()
    +void setIdcentrocosto(int)
    +void setCarrera_descrip(string)
    +void setCarrera(int)
    +void setCarrera_stat(int)
    +void setPlan(int)
    +void setDesc_unidad_alumno(string)
    +void setFa(int)
    +void setEs(int)
    +void setCa(int)
}
class Listados [[java:personas.Listados]] {
	+void listarPerson()
	+void listarPersonFacu()
	+void buscarAppers()
	+void buscarPerson()
	+void buscarPerdoc()
	+void buscarTargeta()
	+void buscarUsuarioWeb()
	+void buscarCatXPerson()
}
class Administrativos {
    #int unidad
    #int edificio
    #int sede
    +int obtener_unidad()
}

class Direcciones {
	-class_db db
	-int tipo
	-String calle
	-int numero
	-int piso
	-String departamento
	-String pais
	-String poldiv
	-String city
	-String codigoPostal
	
	+void recuperar_dire_person()
	+void grabar_direccion()
	-void cargar_db_apers()
	+String getPais_hf()
	+String getTipo_hf()
	+String getPoldiv_hf()
	+String getCity_hf()
}

Documentos <|-- Dnis
Documentos <|-- Pasaportes
Documentos <|-- Cuils
Personas <|-- Alumnos
Personas <|-- Externo
Personas <|-- Empleados
Empleados <|-- Administrativos
Empleados <|-- Academicos
Empleados <|-- Docentes
Personas --> "1" Cuentas : cuenta

Personas "1" *-- "*" Documentos
Personas "1" *-- "*" Direcciones
Personas "1" *-- "*" Telefonos
Personas "1" *-- "*" Emails
Personas "1" *-- "1" Cuentas

@enduml